<?xml version="1.0" encoding="UTF-8"?>
<svg width="16px" height="16px" viewBox="0 0 16 16" version="1.1" xmlns="http://www.w3.org/2000/svg" xmlns:xlink="http://www.w3.org/1999/xlink">
    <!-- Generator: Sketch 43.1 (39012) - http://www.bohemiancoding.com/sketch -->
    <title>Icon/Add</title>
    <desc>Created with Sketch.</desc>
    <defs></defs>
    <g id="Symbols" stroke="none" stroke-width="1" fill="none" fill-rule="evenodd">
        <g id="Input/Add-New" transform="translate(-33.000000, -22.000000)" fill="#39AAB7">
            <g id="Icon/Add">
                <g transform="translate(33.000000, 22.000000)">
                    <path d="M9.06666667,6.93333333 L9.06666667,1.07464957 C9.06666667,0.478848219 8.58910373,0 8,0 C7.40678914,0 6.93333333,0.481137002 6.93333333,1.07464957 L6.93333333,6.93333333 L1.07464957,6.93333333 C0.478848219,6.93333333 -1.18666667e-14,7.41089627 -1.18666667e-14,8 C-1.18666667e-14,8.59321086 0.481137002,9.06666667 1.07464957,9.06666667 L6.93333333,9.06666667 L6.93333333,14.9253504 C6.93333333,15.5211518 7.41089627,16 8,16 C8.59321086,16 9.06666667,15.518863 9.06666667,14.9253504 L9.06666667,9.06666667 L14.9253504,9.06666667 C15.5211518,9.06666667 16,8.58910373 16,8 C16,7.40678914 15.518863,6.93333333 14.9253504,6.93333333 L9.06666667,6.93333333 Z"></path>
                </g>
            </g>
        </g>
    </g>
</svg>