<?xml version="1.0" encoding="UTF-8"?>
<svg width="125px" height="125px" viewBox="0 0 125 125" version="1.1" xmlns="http://www.w3.org/2000/svg" xmlns:xlink="http://www.w3.org/1999/xlink">
    <!-- Generator: Sketch 43.1 (39012) - http://www.bohemiancoding.com/sketch -->
    <title>check-empty@2x</title>
    <desc>Created with Sketch.</desc>
    <defs></defs>
    <g id="To-Do" stroke="none" stroke-width="1" fill="none" fill-rule="evenodd">
        <g id="Todo---Hover" transform="translate(-658.000000, -355.000000)" stroke="#CDCDCD" stroke-width="2">
            <path d="M720.5,479 C686.534488,479 659,451.465512 659,417.5 C659,383.534488 686.534488,356 720.5,356 C754.465512,356 782,383.534488 782,417.5 C782,451.465512 754.465512,479 720.5,479 Z M715.088549,418.169664 L704.64475,407.725898 C704.062902,407.144051 703.11055,407.131849 702.523625,407.718772 L694.010848,416.231522 C693.425895,416.816473 693.435924,417.77039 694.020245,418.35526 L714.020398,438.374204 C714.611463,438.965824 715.556869,438.972195 716.14552,438.383546 L747.671803,406.857362 C748.254639,406.274527 748.257075,405.326512 747.672862,404.742301 L739.160085,396.22955 C738.578544,395.64801 737.627961,395.647857 737.043957,396.231405 L715.088549,418.169664 Z" id="check-empty"></path>
        </g>
    </g>
</svg>