<?xml version="1.0" encoding="UTF-8"?>
<svg width="117px" height="27px" viewBox="0 0 117 27" version="1.1" xmlns="http://www.w3.org/2000/svg" xmlns:xlink="http://www.w3.org/1999/xlink">
    <!-- Generator: Sketch 42 (36781) - http://www.bohemiancoding.com/sketch -->
    <title>teda-is</title>
    <desc>Created with Sketch.</desc>
    <defs></defs>
    <g id="Page-1" stroke="none" stroke-width="1" fill="none" fill-rule="evenodd">
        <g id="logo-w-icon" transform="translate(-34.000000, 0.000000)" fill="#FFFFFF">
            <g id="Logo-with-Icon">
                <g id="To-Do">
                    <g id="Artboard">
                        <g id="Logo-with-Icon">
                            <g id="teda-is" transform="translate(34.000000, 0.000000)">
                                <g id="path-1-link">
                                    <path d="M7.884,26.604 C7.091996,26.604 6.3600034,26.508001 5.688,26.316 C5.0159966,26.123999 4.4340025,25.8120022 3.942,25.38 C3.4499975,24.9479978 3.0720013,24.3780035 2.808,23.67 C2.5439987,22.9619965 2.412,22.0800053 2.412,21.024 L2.412,11.016 L0,11.016 L0,7.272 L2.412,7.272 L2.412,2.052 L6.768,2.052 L6.768,7.272 L11.88,7.272 L11.88,11.016 L6.768,11.016 L6.768,20.34 C6.768,21.1800042 6.971998,21.7859981 7.38,22.158 C7.788002,22.5300019 8.3639963,22.716 9.108,22.716 C10.0440047,22.716 10.9439957,22.5000022 11.808,22.068 L11.808,25.632 C11.2559972,25.9440016 10.6680031,26.1839992 10.044,26.352 C9.4199969,26.5200008 8.7000041,26.604 7.884,26.604 Z M29.304,15.444 C29.2319996,14.7479965 29.0760012,14.0940031 28.836,13.482 C28.5959988,12.8699969 28.272002,12.3420022 27.864,11.898 C27.455998,11.4539978 26.9700028,11.1000013 26.406,10.836 C25.8419972,10.5719987 25.2000036,10.44 24.48,10.44 C23.1359933,10.44 22.0260044,10.9019954 21.15,11.826 C20.2739956,12.7500046 19.740001,13.9559926 19.548,15.444 L29.304,15.444 Z M24.984,26.712 C23.6159932,26.712 22.3380059,26.4720024 21.15,25.992 C19.9619941,25.5119976 18.9300044,24.8400043 18.054,23.976 C17.1779956,23.1119957 16.4880025,22.0740061 15.984,20.862 C15.4799975,19.6499939 15.228,18.3120073 15.228,16.848 L15.228,16.776 C15.228,15.4079932 15.4559977,14.124006 15.912,12.924 C16.3680023,11.723994 17.0099959,10.6740045 17.838,9.774 C18.6660041,8.8739955 19.6439944,8.16600258 20.772,7.65 C21.9000056,7.13399742 23.1479932,6.876 24.516,6.876 C26.0280076,6.876 27.3539943,7.15199724 28.494,7.704 C29.6340057,8.25600276 30.5819962,8.99999532 31.338,9.936 C32.0940038,10.8720047 32.6639981,11.9579938 33.048,13.194 C33.4320019,14.4300062 33.624,15.7319932 33.624,17.1 C33.624,17.292001 33.6180001,17.489999 33.606,17.694 C33.5939999,17.898001 33.5760001,18.1079989 33.552,18.324 L19.584,18.324 C19.8240012,19.8840078 20.441995,21.0779959 21.438,21.906 C22.434005,22.7340041 23.6399929,23.148 25.056,23.148 C26.1360054,23.148 27.071996,22.9560019 27.864,22.572 C28.656004,22.1879981 29.4359962,21.6240037 30.204,20.88 L32.76,23.148 C31.8479954,24.2280054 30.7620063,25.0919968 29.502,25.74 C28.2419937,26.3880032 26.7360088,26.712 24.984,26.712 Z M46.908,22.896 C47.6280036,22.896 48.3239966,22.7520014 48.996,22.464 C49.6680034,22.1759986 50.2559975,21.7620027 50.76,21.222 C51.2640025,20.6819973 51.6659985,20.0400037 51.966,19.296 C52.2660015,18.5519963 52.416,17.7240046 52.416,16.812 L52.416,16.74 C52.416,15.8279954 52.2660015,14.9940038 51.966,14.238 C51.6659985,13.4819962 51.2640025,12.8400026 50.76,12.312 C50.2559975,11.7839974 49.6680034,11.3760014 48.996,11.088 C48.3239966,10.7999986 47.6280036,10.656 46.908,10.656 C46.1639963,10.656 45.4620033,10.7939986 44.802,11.07 C44.1419967,11.3460014 43.5600025,11.7479974 43.056,12.276 C42.5519975,12.8040026 42.1560014,13.4459962 41.868,14.202 C41.5799986,14.9580038 41.436,15.8039953 41.436,16.74 L41.436,16.812 C41.436,17.7240046 41.5799986,18.5579962 41.868,19.314 C42.1560014,20.0700038 42.5519975,20.7119974 43.056,21.24 C43.5600025,21.7680026 44.1419967,22.1759986 44.802,22.464 C45.4620033,22.7520014 46.1639963,22.896 46.908,22.896 Z M45.864,26.676 C44.7359944,26.676 43.6440053,26.4600022 42.588,26.028 C41.5319947,25.5959978 40.5960041,24.9600042 39.78,24.12 C38.9639959,23.2799958 38.3040025,22.2480061 37.8,21.024 C37.2959975,19.7999939 37.044,18.3960079 37.044,16.812 L37.044,16.74 C37.044,15.1559921 37.2899975,13.7520061 37.782,12.528 C38.2740025,11.3039939 38.9279959,10.2720042 39.744,9.432 C40.5600041,8.5919958 41.5019947,7.95600216 42.57,7.524 C43.6380053,7.09199784 44.7359944,6.876 45.864,6.876 C47.4240078,6.876 48.7199948,7.21199664 49.752,7.884 C50.7840052,8.55600336 51.6479965,9.33599556 52.344,10.224 L52.344,0 L56.7,0 L56.7,26.28 L52.344,26.28 L52.344,23.112 C51.6479965,24.0960049 50.7780052,24.9359965 49.734,25.632 C48.6899948,26.3280035 47.4000077,26.676 45.864,26.676 Z M73.872,18.324 C73.319997,18.1079989 72.666004,17.9280007 71.91,17.784 C71.153996,17.6399993 70.356004,17.568 69.516,17.568 C68.147993,17.568 67.080004,17.8319974 66.312,18.36 C65.5439962,18.8880026 65.16,19.6079954 65.16,20.52 L65.16,20.592 C65.16,21.5040046 65.5139965,22.1999976 66.222,22.68 C66.930004,23.1600024 67.799995,23.4 68.832,23.4 C69.552004,23.4 70.217997,23.304001 70.83,23.112 C71.442003,22.919999 71.975998,22.6500017 72.432,22.302 C72.888002,21.9539983 73.241999,21.5340025 73.494,21.042 C73.746001,20.5499975 73.872,20.004003 73.872,19.404 L73.872,18.324 Z M73.764,26.28 L73.764,23.94 C73.115997,24.7080038 72.288005,25.3559974 71.28,25.884 C70.271995,26.4120026 69.048007,26.676 67.608,26.676 C66.695995,26.676 65.8320041,26.5500013 65.016,26.298 C64.1999959,26.0459987 63.4860031,25.6740025 62.874,25.182 C62.2619969,24.6899975 61.7700019,24.0780037 61.398,23.346 C61.0259981,22.6139963 60.84,21.7680048 60.84,20.808 L60.84,20.736 C60.84,19.6799947 61.0319981,18.7620039 61.416,17.982 C61.8000019,17.2019961 62.3339966,16.5540026 63.018,16.038 C63.7020034,15.5219974 64.5179953,15.1380013 65.466,14.886 C66.414005,14.6339987 67.439994,14.508 68.544,14.508 C69.696006,14.508 70.673996,14.5799993 71.478,14.724 C72.282004,14.8680007 73.055996,15.0599988 73.8,15.3 L73.8,14.94 C73.8,13.6199934 73.398004,12.6120035 72.594,11.916 C71.789996,11.2199965 70.632008,10.872 69.12,10.872 C68.039995,10.872 67.080004,10.9799989 66.24,11.196 C65.3999958,11.4120011 64.5480043,11.6999982 63.684,12.06 L62.496,8.568 C63.5520053,8.0879976 64.6319945,7.70400144 65.736,7.416 C66.840006,7.12799856 68.171992,6.984 69.732,6.984 C72.564014,6.984 74.663993,7.68599298 76.032,9.09 C77.400007,10.494007 78.084,12.4679873 78.084,15.012 L78.084,26.28 L73.764,26.28 Z M82.98,21.348 L87.768,21.348 L87.768,26.28 L82.98,26.28 L82.98,21.348 Z M93.204,7.272 L97.56,7.272 L97.56,26.28 L93.204,26.28 L93.204,7.272 Z M93.024,0.216 L97.704,0.216 L97.704,4.356 L93.024,4.356 L93.024,0.216 Z M109.764,26.64 C108.395993,26.64 107.010007,26.4000024 105.606,25.92 C104.201993,25.4399976 102.900006,24.7320047 101.7,23.796 L103.644,20.844 C104.676005,21.6120038 105.725995,22.193998 106.794,22.59 C107.862005,22.986002 108.887995,23.184 109.872,23.184 C110.808005,23.184 111.533997,22.9980019 112.05,22.626 C112.566003,22.2539981 112.824,21.7560031 112.824,21.132 L112.824,21.06 C112.824,20.6999982 112.710001,20.3880013 112.482,20.124 C112.253999,19.8599987 111.942002,19.632001 111.546,19.44 C111.149998,19.247999 110.694003,19.0680008 110.178,18.9 C109.661997,18.7319992 109.128003,18.5640008 108.576,18.396 C107.879997,18.203999 107.178004,17.9760013 106.47,17.712 C105.761996,17.4479987 105.126003,17.1060021 104.562,16.686 C103.997997,16.2659979 103.536002,15.7440031 103.176,15.12 C102.815998,14.4959969 102.636,13.7280046 102.636,12.816 L102.636,12.744 C102.636,11.8559956 102.809998,11.0520036 103.158,10.332 C103.506002,9.6119964 103.985997,9.00000252 104.598,8.496 C105.210003,7.99199748 105.929996,7.60800132 106.758,7.344 C107.586004,7.07999868 108.467995,6.948 109.404,6.948 C110.604006,6.948 111.815994,7.13999808 113.04,7.524 C114.264006,7.90800192 115.379995,8.43599664 116.388,9.108 L114.66,12.204 C113.747995,11.6519972 112.824005,11.2140016 111.888,10.89 C110.951995,10.5659984 110.088004,10.404 109.296,10.404 C108.455996,10.404 107.802002,10.5839982 107.334,10.944 C106.865998,11.3040018 106.632,11.7599972 106.632,12.312 L106.632,12.384 C106.632,12.7200017 106.751999,13.0139987 106.992,13.266 C107.232001,13.5180013 107.549998,13.745999 107.946,13.95 C108.342002,14.154001 108.797997,14.3459991 109.314,14.526 C109.830003,14.7060009 110.363997,14.8799992 110.916,15.048 C111.612003,15.2640011 112.307997,15.5159986 113.004,15.804 C113.700003,16.0920014 114.329997,16.4459979 114.894,16.866 C115.458003,17.2860021 115.919998,17.795997 116.28,18.396 C116.640002,18.996003 116.82,19.7279957 116.82,20.592 L116.82,20.664 C116.82,21.672005 116.640002,22.5479963 116.28,23.292 C115.919998,24.0360037 115.422003,24.6539975 114.786,25.146 C114.149997,25.6380025 113.400004,26.0099987 112.536,26.262 C111.671996,26.5140013 110.748005,26.64 109.764,26.64 Z M63.776,1.27895656 C63.776,0.727248087 64.231761,0.28 64.7784733,0.28 L74.773527,0.28 C75.327177,0.28 75.776,0.722660332 75.776,1.27895656 L75.776,2.28104344 C75.776,2.83275191 75.320239,3.28 74.773527,3.28 L64.7784733,3.28 C64.2248226,3.28 63.776,2.83733967 63.776,2.28104344 L63.776,1.27895656 Z" id="path-1"></path>
                                </g>
                            </g>
                        </g>
                    </g>
                </g>
            </g>
        </g>
    </g>
</svg>